<svg xmlns="http://www.w3.org/2000/svg" xmlns:xlink="http://www.w3.org/1999/xlink" xmlns:lucid="lucid" width="638.58" height="232.2"><g transform="translate(-154.175 -400)" lucid:page-tab-id="_JAcdxRL.~wM"><path d="M296.8 463.8h-81.96c-1.43 0-2.98 1.2-2.98 2.88v52.08c0 1.44 1.2 3.72 2.98 3.72h34.96V528c0 1.8-2.63 5.04-4.66 5.04h-5.84c-6.45 0-11.1 1.68-11.1 5.28 0 1.68-.24 1.68 6.1 1.68h3.2c5.02 0 5.85-2.88 10.86-2.88h12.53c4.88 0 8.7 2.88 11.92 2.88h3.22c6.45 0 6.45-.24 6.45-1.68 0-3.24-5.02-5.28-11.35-5.28h-5.96c-1.68 0-4.07-3.24-4.07-5.04v-5.52h35.08c1.44 0 2.87-2.04 2.87-3.72v-52.08c.72-1.44-.48-2.88-2.27-2.88zm-5.72 49.68h-70.16v-40.92h70.16v40.92z" stroke="#000" stroke-opacity="0" fill="#00188f"/><path d="M206.25 510.24v-43.56c0-4.68 3.82-8.76 8.83-8.76h23.26v-32.04c0-3.24-2.62-5.88-5.84-5.88h-46.65c-3.23 0-5.85 2.64-5.85 5.88v113.88h42.95v-2.04c0-2.04.6-7.32 8.1-9.96h-41.99v-5.88h18.5c-.73-1.2-.96-2.64-.96-3.72v-2.04h-17.53v-5.88h17.18zm-17.42-75.6h40.8v8.64h-40.8v-8.64z" stroke="#000" stroke-opacity="0" fill="#00188f"/><use xlink:href="#a" transform="matrix(1,0,0,1,150,549) translate(34.599999999999994 14.4)"/><use xlink:href="#b" transform="matrix(1,0,0,1,150,549) translate(127.45 14.4)"/><use xlink:href="#c" transform="matrix(1,0,0,1,150,549) translate(25.174999999999997 36)"/><use xlink:href="#d" transform="matrix(1,0,0,1,150,549) translate(95.975 36)"/><path d="M512.72 420h-46.87c-3.22 0-5.85 2.64-5.85 5.88V540h58.5V425.88c0-3.24-2.62-5.88-5.78-5.88zm-2.92 108.24h-41.02v-5.88h41.02v5.88zm0-11.64h-41.02v-5.88h41.02v5.88zm0-73.2h-41.02v-5.88h41.02v5.88z" stroke="#000" stroke-opacity="0" fill="#2a3282"/><use xlink:href="#e" transform="matrix(1,0,0,1,430,549) translate(33.05 14.4)"/><use xlink:href="#f" transform="matrix(1,0,0,1,430,549) translate(26.6 36)"/><use xlink:href="#g" transform="matrix(1,0,0,1,430,549) translate(1.0749999999999957 57.6)"/><use xlink:href="#h" transform="matrix(1,0,0,1,430,549) translate(62.025 57.6)"/><use xlink:href="#i" transform="matrix(1,0,0,1,430,549) translate(101.975 57.6)"/><path d="M354.42 494.8h-36.85v-2h36.85zm87.08-10.2h-36.85v-2h36.85zM316.57 498.44l-14.26-4.64 14.27-4.64z"/><path d="M317.57 499.8l-18.5-6 18.5-6zm-12.03-6l10.03 3.26v-6.52zM456.76 483.6l-14.26 4.64v-9.28z"/><path d="M460 483.6l-18.5 6v-12zm-16.5 3.26l10.03-3.26-10.03-3.26z"/><use xlink:href="#j" transform="matrix(1,0,0,1,354.4167356865563,480.06726246420254) translate(0 11.510316745062529)"/><path d="M731.93 420h-46.87c-3.22 0-5.85 2.64-5.85 5.88V540h58.52V425.88c0-3.24-2.63-5.88-5.8-5.88zM729 528.24h-41.02v-5.88H729v5.88zm0-11.64h-41.02v-5.88H729v5.88zm0-73.2h-41.02v-5.88H729v5.88z" stroke="#000" stroke-opacity="0" fill="#2a3282"/><use xlink:href="#e" transform="matrix(1,0,0,1,649.2051725431357,549) translate(33.05 14.4)"/><use xlink:href="#k" transform="matrix(1,0,0,1,649.2051725431357,549) translate(2.549999999999997 36)"/><use xlink:href="#g" transform="matrix(1,0,0,1,649.2051725431357,549) translate(1.0749999999999957 57.6)"/><use xlink:href="#h" transform="matrix(1,0,0,1,649.2051725431357,549) translate(62.025 57.6)"/><use xlink:href="#i" transform="matrix(1,0,0,1,649.2051725431357,549) translate(101.975 57.6)"/><path d="M578.12 483.76h-41.1v-2h41.1zm82.58 0h-41.1v-2h41.1zM536.02 487.4l-14.27-4.64 14.27-4.64z"/><path d="M537.02 488.77l-18.5-6 18.5-6.02zm-12.03-6L535 486v-6.52zM675.97 482.76l-14.27 4.64v-9.28z"/><path d="M679.2 482.76l-18.5 6v-12zm-16.5 3.26l10.03-3.26-10.03-3.26z"/><g><use xlink:href="#l" transform="matrix(1,0,0,1,578.1175363039031,474.1272624412031) translate(0 11.510316745062529)"/></g><defs><path d="M205 0l-28-72H64L36 0H1l101-248h38L239 0h-34zm-38-99l-47-123c-12 45-31 82-46 123h93" id="m"/><path d="M115-194c55 1 70 41 70 98S169 2 115 4C84 4 66-9 55-30l1 105H24l-1-265h31l2 30c10-21 28-34 59-34zm-8 174c40 0 45-34 45-75s-6-73-45-74c-42 0-51 32-51 76 0 43 10 73 51 73" id="n"/><path d="M24 0v-261h32V0H24" id="o"/><path d="M24-231v-30h32v30H24zM24 0v-190h32V0H24" id="p"/><path d="M96-169c-40 0-48 33-48 73s9 75 48 75c24 0 41-14 43-38l32 2c-6 37-31 61-74 61-59 0-76-41-82-99-10-93 101-131 147-64 4 7 5 14 7 22l-32 3c-4-21-16-35-41-35" id="q"/><path d="M141-36C126-15 110 5 73 4 37 3 15-17 15-53c-1-64 63-63 125-63 3-35-9-54-41-54-24 1-41 7-42 31l-33-3c5-37 33-52 76-52 45 0 72 20 72 64v82c-1 20 7 32 28 27v20c-31 9-61-2-59-35zM48-53c0 20 12 33 32 33 41-3 63-29 60-74-43 2-92-5-92 41" id="r"/><path d="M59-47c-2 24 18 29 38 22v24C64 9 27 4 27-40v-127H5v-23h24l9-43h21v43h35v23H59v120" id="s"/><path d="M100-194c62-1 85 37 85 99 1 63-27 99-86 99S16-35 15-95c0-66 28-99 85-99zM99-20c44 1 53-31 53-75 0-43-8-75-51-75s-53 32-53 75 10 74 51 75" id="t"/><path d="M117-194c89-4 53 116 60 194h-32v-121c0-31-8-49-39-48C34-167 62-67 57 0H25l-1-190h30c1 10-1 24 2 32 11-22 29-35 61-36" id="u"/><g id="a"><use transform="matrix(0.05,0,0,0.05,0,0)" xlink:href="#m"/><use transform="matrix(0.05,0,0,0.05,12,0)" xlink:href="#n"/><use transform="matrix(0.05,0,0,0.05,22,0)" xlink:href="#n"/><use transform="matrix(0.05,0,0,0.05,32,0)" xlink:href="#o"/><use transform="matrix(0.05,0,0,0.05,35.95,0)" xlink:href="#p"/><use transform="matrix(0.05,0,0,0.05,39.900000000000006,0)" xlink:href="#q"/><use transform="matrix(0.05,0,0,0.05,48.900000000000006,0)" xlink:href="#r"/><use transform="matrix(0.05,0,0,0.05,58.900000000000006,0)" xlink:href="#s"/><use transform="matrix(0.05,0,0,0.05,63.900000000000006,0)" xlink:href="#p"/><use transform="matrix(0.05,0,0,0.05,67.85000000000001,0)" xlink:href="#t"/><use transform="matrix(0.05,0,0,0.05,77.85000000000001,0)" xlink:href="#u"/></g><path d="M232-93c-1 65-40 97-104 97C67 4 28-28 28-90v-158h33c8 89-33 224 67 224 102 0 64-133 71-224h33v155" id="v"/><path d="M33 0v-248h34V0H33" id="w"/><g id="b"><use transform="matrix(0.05,0,0,0.05,0,0)" xlink:href="#v"/><use transform="matrix(0.05,0,0,0.05,12.950000000000001,0)" xlink:href="#w"/></g><path d="M190 0L58-211 59 0H30v-248h39L202-35l-2-213h31V0h-41" id="x"/><path d="M114-163C36-179 61-72 57 0H25l-1-190h30c1 12-1 29 2 39 6-27 23-49 58-41v29" id="y"/><g id="c"><use transform="matrix(0.05,0,0,0.05,0,0)" xlink:href="#x"/><use transform="matrix(0.05,0,0,0.05,12.950000000000001,0)" xlink:href="#r"/><use transform="matrix(0.05,0,0,0.05,22.950000000000003,0)" xlink:href="#y"/><use transform="matrix(0.05,0,0,0.05,28.900000000000002,0)" xlink:href="#y"/><use transform="matrix(0.05,0,0,0.05,34.85,0)" xlink:href="#r"/><use transform="matrix(0.05,0,0,0.05,44.85,0)" xlink:href="#s"/><use transform="matrix(0.05,0,0,0.05,49.85,0)" xlink:href="#t"/><use transform="matrix(0.05,0,0,0.05,59.85,0)" xlink:href="#y"/></g><path d="M87 75C49 33 22-17 22-94c0-76 28-126 65-167h31c-38 41-64 92-64 168S80 34 118 75H87" id="z"/><path d="M233-177c-1 41-23 64-60 70L243 0h-38l-65-103H63V0H30v-248c88 3 205-21 203 71zM63-129c60-2 137 13 137-47 0-61-80-42-137-45v92" id="A"/><path d="M100-194c63 0 86 42 84 106H49c0 40 14 67 53 68 26 1 43-12 49-29l28 8c-11 28-37 45-77 45C44 4 14-33 15-96c1-61 26-98 85-98zm52 81c6-60-76-77-97-28-3 7-6 17-6 28h103" id="B"/><path d="M33-261c38 41 65 92 65 168S71 34 33 75H2C39 34 66-17 66-93S39-220 2-261h31" id="C"/><g id="d"><use transform="matrix(0.05,0,0,0.05,0,0)" xlink:href="#z"/><use transform="matrix(0.05,0,0,0.05,5.95,0)" xlink:href="#A"/><use transform="matrix(0.05,0,0,0.05,18.900000000000002,0)" xlink:href="#B"/><use transform="matrix(0.05,0,0,0.05,28.900000000000002,0)" xlink:href="#r"/><use transform="matrix(0.05,0,0,0.05,38.900000000000006,0)" xlink:href="#q"/><use transform="matrix(0.05,0,0,0.05,47.900000000000006,0)" xlink:href="#s"/><use transform="matrix(0.05,0,0,0.05,52.900000000000006,0)" xlink:href="#C"/></g><path d="M185-189c-5-48-123-54-124 2 14 75 158 14 163 119 3 78-121 87-175 55-17-10-28-26-33-46l33-7c5 56 141 63 141-1 0-78-155-14-162-118-5-82 145-84 179-34 5 7 8 16 11 25" id="D"/><path d="M108 0H70L1-190h34L89-25l56-165h34" id="E"/><g id="e"><use transform="matrix(0.05,0,0,0.05,0,0)" xlink:href="#D"/><use transform="matrix(0.05,0,0,0.05,12,0)" xlink:href="#B"/><use transform="matrix(0.05,0,0,0.05,22,0)" xlink:href="#y"/><use transform="matrix(0.05,0,0,0.05,27.950000000000003,0)" xlink:href="#E"/><use transform="matrix(0.05,0,0,0.05,36.95,0)" xlink:href="#B"/><use transform="matrix(0.05,0,0,0.05,46.95,0)" xlink:href="#y"/></g><g id="f"><use transform="matrix(0.05,0,0,0.05,0,0)" xlink:href="#x"/><use transform="matrix(0.05,0,0,0.05,12.950000000000001,0)" xlink:href="#r"/><use transform="matrix(0.05,0,0,0.05,22.950000000000003,0)" xlink:href="#y"/><use transform="matrix(0.05,0,0,0.05,28.900000000000002,0)" xlink:href="#y"/><use transform="matrix(0.05,0,0,0.05,34.85,0)" xlink:href="#r"/><use transform="matrix(0.05,0,0,0.05,44.85,0)" xlink:href="#s"/><use transform="matrix(0.05,0,0,0.05,49.85,0)" xlink:href="#t"/><use transform="matrix(0.05,0,0,0.05,59.85,0)" xlink:href="#y"/></g><path d="M85-194c31 0 48 13 60 33l-1-100h32l1 261h-30c-2-10 0-23-3-31C134-8 116 4 85 4 32 4 16-35 15-94c0-66 23-100 70-100zm9 24c-40 0-46 34-46 75 0 40 6 74 45 74 42 0 51-32 51-76 0-42-9-74-50-73" id="F"/><g id="g"><use transform="matrix(0.05,0,0,0.05,0,0)" xlink:href="#z"/><use transform="matrix(0.05,0,0,0.05,5.95,0)" xlink:href="#F"/><use transform="matrix(0.05,0,0,0.05,15.949999999999998,0)" xlink:href="#t"/><use transform="matrix(0.05,0,0,0.05,25.950000000000003,0)" xlink:href="#s"/><use transform="matrix(0.05,0,0,0.05,30.950000000000003,0)" xlink:href="#u"/><use transform="matrix(0.05,0,0,0.05,40.95,0)" xlink:href="#B"/><use transform="matrix(0.05,0,0,0.05,50.95,0)" xlink:href="#s"/></g><g id="h"><use transform="matrix(0.05,0,0,0.05,0,0)" xlink:href="#q"/><use transform="matrix(0.05,0,0,0.05,9,0)" xlink:href="#t"/><use transform="matrix(0.05,0,0,0.05,19,0)" xlink:href="#y"/><use transform="matrix(0.05,0,0,0.05,24.95,0)" xlink:href="#B"/></g><path d="M126-127c33 6 58 20 58 59 0 88-139 92-164 29-3-8-5-16-6-25l32-3c6 27 21 44 54 44 32 0 52-15 52-46 0-38-36-46-79-43v-28c39 1 72-4 72-42 0-27-17-43-46-43-28 0-47 15-49 41l-32-3c6-42 35-63 81-64 48-1 79 21 79 65 0 36-21 52-52 59" id="G"/><g id="i"><use transform="matrix(0.05,0,0,0.05,0,0)" xlink:href="#G"/><use transform="matrix(0.05,0,0,0.05,10,0)" xlink:href="#C"/></g><path d="M177-190C167-65 218 103 67 71c-23-6-38-20-44-43l32-5c15 47 100 32 89-28v-30C133-14 115 1 83 1 29 1 15-40 15-95c0-56 16-97 71-98 29-1 48 16 59 35 1-10 0-23 2-32h30zM94-22c36 0 50-32 50-73 0-42-14-75-50-75-39 0-46 34-46 75s6 73 46 73" id="H"/><g id="j"><use transform="matrix(0.039966377587022664,0,0,0.039966377587022664,0,0)" xlink:href="#D"/><use transform="matrix(0.039966377587022664,0,0,0.039966377587022664,9.591930620885439,0)" xlink:href="#p"/><use transform="matrix(0.039966377587022664,0,0,0.039966377587022664,12.74927445026023,0)" xlink:href="#H"/><use transform="matrix(0.039966377587022664,0,0,0.039966377587022664,20.74254996766476,0)" xlink:href="#u"/><use transform="matrix(0.039966377587022664,0,0,0.039966377587022664,28.735825485069295,0)" xlink:href="#r"/><use transform="matrix(0.039966377587022664,0,0,0.039966377587022664,36.729101002473826,0)" xlink:href="#o"/><use transform="matrix(0.039966377587022664,0,0,0.039966377587022664,39.886444831848614,0)" xlink:href="#A"/></g><path d="M84 4C-5 8 30-112 23-190h32v120c0 31 7 50 39 49 72-2 45-101 50-169h31l1 190h-30c-1-10 1-25-2-33-11 22-28 36-60 37" id="I"/><path d="M106-169C34-169 62-67 57 0H25v-261h32l-1 103c12-21 28-36 61-36 89 0 53 116 60 194h-32v-121c2-32-8-49-39-48" id="J"/><g id="k"><use transform="matrix(0.05,0,0,0.05,0,0)" xlink:href="#m"/><use transform="matrix(0.05,0,0,0.05,12,0)" xlink:href="#I"/><use transform="matrix(0.05,0,0,0.05,22,0)" xlink:href="#s"/><use transform="matrix(0.05,0,0,0.05,27,0)" xlink:href="#J"/><use transform="matrix(0.05,0,0,0.05,37,0)" xlink:href="#B"/><use transform="matrix(0.05,0,0,0.05,47,0)" xlink:href="#u"/><use transform="matrix(0.05,0,0,0.05,57,0)" xlink:href="#s"/><use transform="matrix(0.05,0,0,0.05,62,0)" xlink:href="#p"/><use transform="matrix(0.05,0,0,0.05,65.95,0)" xlink:href="#q"/><use transform="matrix(0.05,0,0,0.05,74.95,0)" xlink:href="#r"/><use transform="matrix(0.05,0,0,0.05,84.95,0)" xlink:href="#s"/><use transform="matrix(0.05,0,0,0.05,89.95,0)" xlink:href="#p"/><use transform="matrix(0.05,0,0,0.05,93.9,0)" xlink:href="#t"/><use transform="matrix(0.05,0,0,0.05,103.9,0)" xlink:href="#u"/></g><path d="M143 4C61 4 22-44 18-125c-5-107 100-154 193-111 17 8 29 25 37 43l-32 9c-13-25-37-40-76-40-61 0-88 39-88 99 0 61 29 100 91 101 35 0 62-11 79-27v-45h-74v-28h105v86C228-13 192 4 143 4" id="K"/><path d="M30-248c87 1 191-15 191 75 0 78-77 80-158 76V0H30v-248zm33 125c57 0 124 11 124-50 0-59-68-47-124-48v98" id="L"/><path d="M212-179c-10-28-35-45-73-45-59 0-87 40-87 99 0 60 29 101 89 101 43 0 62-24 78-52l27 14C228-24 195 4 139 4 59 4 22-46 18-125c-6-104 99-153 187-111 19 9 31 26 39 46" id="M"/><g id="l"><use transform="matrix(0.039966377587022664,0,0,0.039966377587022664,0,0)" xlink:href="#K"/><use transform="matrix(0.039966377587022664,0,0,0.039966377587022664,11.190585724366345,0)" xlink:href="#A"/><use transform="matrix(0.039966377587022664,0,0,0.039966377587022664,21.541877519405215,0)" xlink:href="#L"/><use transform="matrix(0.039966377587022664,0,0,0.039966377587022664,31.133808140290654,0)" xlink:href="#M"/></g></defs></g></svg>